<svg width="21" height="21" viewBox="0 0 21 21" fill="none" xmlns="http://www.w3.org/2000/svg">
<path fill-rule="evenodd" clip-rule="evenodd" d="M12.7912 9.77948H15.5591C15.9787 9.77948 16.3085 9.44511 16.3085 9.0419C16.3085 8.62886 15.9787 8.30433 15.5591 8.30433H12.7912C12.3716 8.30433 12.0418 8.62886 12.0418 9.0419C12.0418 9.44511 12.3716 9.77948 12.7912 9.77948ZM18.8465 4.66664C19.456 4.66664 19.8557 4.87316 20.2554 5.32554C20.6551 5.77792 20.725 6.42699 20.6351 7.01606L19.6858 13.4674C19.506 14.7075 18.4268 15.6211 17.1578 15.6211H6.25631C4.92735 15.6211 3.8282 14.619 3.71829 13.3209L2.799 2.60045L1.29018 2.34475C0.890492 2.27591 0.61071 1.89238 0.680656 1.499C0.750601 1.09678 1.1403 0.830267 1.54998 0.890257L3.93312 1.24331C4.27286 1.3033 4.52266 1.57768 4.55264 1.91204L4.74249 4.11493C4.77247 4.43062 5.03226 4.66664 5.35202 4.66664H18.8465ZM6.09624 17.1754C5.2569 17.1754 4.57742 17.8441 4.57742 18.6702C4.57742 19.4865 5.2569 20.1552 6.09624 20.1552C6.9256 20.1552 7.60507 19.4865 7.60507 18.6702C7.60507 17.8441 6.9256 17.1754 6.09624 17.1754ZM17.3375 17.1754C16.4981 17.1754 15.8187 17.8441 15.8187 18.6702C15.8187 19.4865 16.4981 20.1552 17.3375 20.1552C18.1668 20.1552 18.8463 19.4865 18.8463 18.6702C18.8463 17.8441 18.1668 17.1754 17.3375 17.1754Z" fill="#202020"/>
</svg>
