<svg width="20" height="21" viewBox="0 0 20 21" fill="none" xmlns="http://www.w3.org/2000/svg">
<g id="Close Square">
<path id="Close Square_2" fill-rule="evenodd" clip-rule="evenodd" d="M5.67 0.68457H14.34C17.73 0.68457 20 3.06457 20 6.60457V14.7756C20 18.3056 17.73 20.6846 14.34 20.6846H5.67C2.28 20.6846 0 18.3056 0 14.7756V6.60457C0 3.06457 2.28 0.68457 5.67 0.68457ZM13.01 13.6846C13.35 13.3456 13.35 12.7956 13.01 12.4556L11.23 10.6756L13.01 8.89457C13.35 8.55557 13.35 7.99557 13.01 7.65557C12.67 7.31457 12.12 7.31457 11.77 7.65557L10 9.43457L8.22 7.65557C7.87 7.31457 7.32 7.31457 6.98 7.65557C6.64 7.99557 6.64 8.55557 6.98 8.89457L8.76 10.6756L6.98 12.4456C6.64 12.7956 6.64 13.3456 6.98 13.6846C7.15 13.8546 7.38 13.9456 7.6 13.9456C7.83 13.9456 8.05 13.8546 8.22 13.6846L10 11.9156L11.78 13.6846C11.95 13.8656 12.17 13.9456 12.39 13.9456C12.62 13.9456 12.84 13.8546 13.01 13.6846Z" fill="#ED5466"/>
</g>
</svg>
