<svg width="20" height="21" viewBox="0 0 20 21" fill="none" xmlns="http://www.w3.org/2000/svg">
<path fill-rule="evenodd" clip-rule="evenodd" d="M0 9.63086C0 4.8426 3.84034 0.960938 8.57764 0.960938C10.8526 0.960938 13.0343 1.87437 14.6429 3.5003C16.2516 5.12623 17.1553 7.33146 17.1553 9.63086C17.1553 14.4191 13.3149 18.3008 8.57764 18.3008C3.84034 18.3008 0 14.4191 0 9.63086ZM17.0134 16.6152L19.568 18.6774H19.6124C20.1292 19.1998 20.1292 20.0467 19.6124 20.5691C19.0955 21.0915 18.2576 21.0915 17.7407 20.5691L15.6207 18.1394C15.4203 17.9375 15.3076 17.6633 15.3076 17.3773C15.3076 17.0913 15.4203 16.8171 15.6207 16.6152C16.0072 16.2313 16.6268 16.2313 17.0134 16.6152Z" fill="#202020"/>
</svg>
